<mxfile host="app.diagrams.net" agent="Mozilla/5.0 (Windows NT 10.0; Win64; x64) AppleWebKit/537.36 (KHTML, like Gecko) Chrome/140.0.0.0 Safari/537.36" version="28.2.3">
  <diagram id="uNUxpR66J3E9O9nGiyKl" name="ページ1">
    <mxGraphModel dx="786" dy="451" grid="1" gridSize="10" guides="1" tooltips="1" connect="1" arrows="1" fold="1" page="1" pageScale="1" pageWidth="827" pageHeight="1169" math="0" shadow="0">
      <root>
        <mxCell id="0" />
        <mxCell id="1" parent="0" />
        <mxCell id="W_qSasQnc7R4ZVJASuKN-2" value="訪問者" style="shape=umlActor;verticalLabelPosition=bottom;verticalAlign=top;html=1;" vertex="1" parent="1">
          <mxGeometry x="110" y="100" width="30" height="60" as="geometry" />
        </mxCell>
        <mxCell id="W_qSasQnc7R4ZVJASuKN-3" value="ログイン画面" style="shape=umlBoundary;whiteSpace=wrap;html=1;" vertex="1" parent="1">
          <mxGeometry x="230" y="20" width="100" height="80" as="geometry" />
        </mxCell>
        <mxCell id="W_qSasQnc7R4ZVJASuKN-4" value="認証" style="ellipse;shape=umlControl;whiteSpace=wrap;html=1;" vertex="1" parent="1">
          <mxGeometry x="430" y="130" width="70" height="80" as="geometry" />
        </mxCell>
        <mxCell id="W_qSasQnc7R4ZVJASuKN-5" value="メニュー画面" style="shape=umlBoundary;whiteSpace=wrap;html=1;" vertex="1" parent="1">
          <mxGeometry x="180" y="200" width="100" height="80" as="geometry" />
        </mxCell>
        <mxCell id="W_qSasQnc7R4ZVJASuKN-6" value="" style="endArrow=classic;html=1;rounded=0;entryX=-0.007;entryY=0.492;entryDx=0;entryDy=0;entryPerimeter=0;" edge="1" parent="1" source="W_qSasQnc7R4ZVJASuKN-2" target="W_qSasQnc7R4ZVJASuKN-3">
          <mxGeometry width="50" height="50" relative="1" as="geometry">
            <mxPoint x="440" y="240" as="sourcePoint" />
            <mxPoint x="490" y="190" as="targetPoint" />
          </mxGeometry>
        </mxCell>
        <mxCell id="W_qSasQnc7R4ZVJASuKN-7" value="ユーザID、パスワードを入力し、&lt;div&gt;「ログイン」を押す&lt;/div&gt;" style="edgeLabel;html=1;align=center;verticalAlign=middle;resizable=0;points=[];" vertex="1" connectable="0" parent="W_qSasQnc7R4ZVJASuKN-6">
          <mxGeometry x="-0.496" y="-1" relative="1" as="geometry">
            <mxPoint x="-38" y="-46" as="offset" />
          </mxGeometry>
        </mxCell>
        <mxCell id="W_qSasQnc7R4ZVJASuKN-9" value="訪問者&lt;div&gt;システム&lt;/div&gt;" style="ellipse;shape=umlEntity;whiteSpace=wrap;html=1;" vertex="1" parent="1">
          <mxGeometry x="600" y="130" width="80" height="80" as="geometry" />
        </mxCell>
        <mxCell id="W_qSasQnc7R4ZVJASuKN-10" value="" style="endArrow=classic;startArrow=classic;html=1;rounded=0;" edge="1" parent="1" source="W_qSasQnc7R4ZVJASuKN-9" target="W_qSasQnc7R4ZVJASuKN-4">
          <mxGeometry width="50" height="50" relative="1" as="geometry">
            <mxPoint x="570" y="270" as="sourcePoint" />
            <mxPoint x="500" y="150" as="targetPoint" />
          </mxGeometry>
        </mxCell>
        <mxCell id="W_qSasQnc7R4ZVJASuKN-11" value="" style="endArrow=classic;html=1;rounded=0;" edge="1" parent="1" source="W_qSasQnc7R4ZVJASuKN-4" target="W_qSasQnc7R4ZVJASuKN-3">
          <mxGeometry width="50" height="50" relative="1" as="geometry">
            <mxPoint x="570" y="270" as="sourcePoint" />
            <mxPoint x="500" y="150" as="targetPoint" />
            <Array as="points">
              <mxPoint x="465" y="60" />
            </Array>
          </mxGeometry>
        </mxCell>
        <mxCell id="W_qSasQnc7R4ZVJASuKN-18" value="ユーザID、パスワードが&lt;div&gt;一致するデータが無い場合、&lt;/div&gt;&lt;div&gt;「ユーザIDかパスワードが間違っています」&lt;/div&gt;&lt;div&gt;とエラーメッセージを表示する&lt;/div&gt;" style="edgeLabel;html=1;align=center;verticalAlign=middle;resizable=0;points=[];" vertex="1" connectable="0" parent="W_qSasQnc7R4ZVJASuKN-11">
          <mxGeometry x="0.148" y="2" relative="1" as="geometry">
            <mxPoint x="163" y="18" as="offset" />
          </mxGeometry>
        </mxCell>
        <mxCell id="W_qSasQnc7R4ZVJASuKN-13" value="" style="endArrow=classic;html=1;rounded=0;" edge="1" parent="1" source="W_qSasQnc7R4ZVJASuKN-14" target="W_qSasQnc7R4ZVJASuKN-5">
          <mxGeometry width="50" height="50" relative="1" as="geometry">
            <mxPoint x="350" y="320" as="sourcePoint" />
            <mxPoint x="500" y="150" as="targetPoint" />
          </mxGeometry>
        </mxCell>
        <mxCell id="W_qSasQnc7R4ZVJASuKN-14" value="メニュー&lt;div&gt;画面&lt;/div&gt;&lt;div&gt;表示&lt;/div&gt;" style="ellipse;shape=umlControl;whiteSpace=wrap;html=1;" vertex="1" parent="1">
          <mxGeometry x="330" y="200" width="70" height="80" as="geometry" />
        </mxCell>
        <mxCell id="W_qSasQnc7R4ZVJASuKN-15" value="" style="endArrow=classic;html=1;rounded=0;" edge="1" parent="1" source="W_qSasQnc7R4ZVJASuKN-4" target="W_qSasQnc7R4ZVJASuKN-14">
          <mxGeometry width="50" height="50" relative="1" as="geometry">
            <mxPoint x="450" y="240" as="sourcePoint" />
            <mxPoint x="500" y="190" as="targetPoint" />
          </mxGeometry>
        </mxCell>
        <mxCell id="W_qSasQnc7R4ZVJASuKN-19" value="認証成功" style="edgeLabel;html=1;align=center;verticalAlign=middle;resizable=0;points=[];" vertex="1" connectable="0" parent="W_qSasQnc7R4ZVJASuKN-15">
          <mxGeometry x="-0.2342" y="3" relative="1" as="geometry">
            <mxPoint x="9" y="16" as="offset" />
          </mxGeometry>
        </mxCell>
        <mxCell id="W_qSasQnc7R4ZVJASuKN-17" value="" style="endArrow=classic;html=1;rounded=0;" edge="1" parent="1" source="W_qSasQnc7R4ZVJASuKN-3" target="W_qSasQnc7R4ZVJASuKN-4">
          <mxGeometry width="50" height="50" relative="1" as="geometry">
            <mxPoint x="450" y="240" as="sourcePoint" />
            <mxPoint x="500" y="190" as="targetPoint" />
          </mxGeometry>
        </mxCell>
      </root>
    </mxGraphModel>
  </diagram>
</mxfile>
